<svg width="2336" height="741" viewBox="0 0 2336 741" fill="none" xmlns="http://www.w3.org/2000/svg">
<g clip-path="url(#clip0_42_9)">
<mask id="mask0_42_9" style="mask-type:luminance" maskUnits="userSpaceOnUse" x="0" y="0" width="2336" height="741">
<path d="M0 0H2336V741H0V0Z" fill="white"/>
</mask>
<g mask="url(#mask0_42_9)">
<mask id="mask1_42_9" style="mask-type:luminance" maskUnits="userSpaceOnUse" x="0" y="0" width="2336" height="742">
<path d="M0 0.0300293H2336V741.001H0V0.0310293V0.0300293Z" fill="white"/>
</mask>
<g mask="url(#mask1_42_9)">
<path fill-rule="evenodd" clip-rule="evenodd" d="M1752.03 -4.57996C1813.09 40.017 1930.1 50.4231 2012.84 54.3701C2057.33 56.4941 2102.78 57.048 2142.88 57.537L2143.64 57.5471C2150 57.6241 2156.3 57.7011 2162.5 57.7831C2206.64 58.3671 2248.72 59.1981 2278.59 62.9041C2304.43 66.1121 2323.61 74.059 2338.9 87.915C2345.26 93.703 2350.41 99.9971 2354.57 105.391C2355.6 106.691 2356.59 107.984 2357.55 109.259L2357.62 109.349C2360.98 113.737 2364.15 117.882 2367.62 121.617C2372.57 127.019 2377.32 130.684 2382.57 133.152C2388.52 135.956 2395.37 137.241 2403.43 137.08C2412.84 136.892 2424 134.804 2437.57 130.7C2452.46 126.197 2469.69 119.427 2490.26 110.004C2558.97 73.235 2598.84 35.324 2612.08 -5.85596L2612.18 -6.11694C2628.99 -52.7679 2616.72 -101.146 2577.67 -142.373C2539.5 -182.263 2478.28 -205.078 2398.12 -227.063C2316.95 -249.095 2217.46 -261.587 2117.97 -262.238C2012.92 -262.905 1916.38 -250.757 1838.92 -227.048L1838.77 -227.005C1801.48 -215.735 1770.39 -201.609 1746.36 -185.02C1723.44 -169.195 1707.4 -151.494 1698.72 -132.408C1679.38 -89.908 1698.72 -43.386 1751.78 -4.76895L1752.03 -4.58096V-4.57996ZM2402.07 138.576C2393.73 138.576 2386.63 137.142 2380.39 134.205C2374.86 131.602 2369.88 127.791 2364.74 122.212C2361.27 118.434 2358.08 114.267 2354.7 109.856L2354.63 109.764C2353.67 108.491 2352.66 107.202 2351.65 105.904C2347.3 100.285 2342.41 94.301 2336.13 88.604C2321.27 75.144 2302.72 67.4341 2277.81 64.3391C2248.25 60.6721 2206.34 59.846 2162.4 59.264C2156.22 59.182 2149.94 59.106 2143.55 59.028L2142.8 59.018C2102.65 58.528 2057.13 57.974 2012.53 55.846C1952.3 52.972 1903.43 47.657 1863.12 39.599C1812.63 29.507 1775.36 15.2601 1749.16 -3.95795L1748.92 -4.14294C1695.61 -43.0529 1676.2 -89.9049 1695.67 -132.721C1704.44 -151.998 1720.63 -169.876 1743.79 -185.861C1768.09 -202.633 1799.53 -216.91 1837.22 -228.293L1837.36 -228.332C1915.3 -252.173 2012.34 -264.419 2118.03 -263.72C2218.02 -263.065 2318.04 -250.504 2399.67 -228.349C2480.36 -206.22 2542 -183.236 2580.5 -142.984C2619.87 -101.439 2632.18 -52.687 2615.19 -5.69397V-5.43994L2615.08 -5.38696C2601.66 35.99 2561.55 74.0731 2492.5 111.029C2471.69 120.564 2454.29 127.393 2439.25 131.951C2425.2 136.199 2413.54 138.361 2403.56 138.56C2403.06 138.571 2402.55 138.576 2402.07 138.576Z" fill="#DD6929"/>
<path fill-rule="evenodd" clip-rule="evenodd" d="M1897.59 -47.8869C1948.38 -10.8399 2045.68 -2.18686 2114.5 1.09714C2151.54 2.86514 2189.39 3.32713 2222.79 3.73413L2224.18 3.75113C2229.24 3.81313 2234.26 3.87512 2239.2 3.93912C2276 4.42712 2311.11 5.12012 2336.04 8.21512C2357.76 10.9081 2373.83 17.5701 2386.63 29.1831C2391.92 33.9781 2396.06 39.0291 2399.74 43.7731C2400.22 44.4111 2400.72 45.0501 2401.21 45.6831L2402.21 46.9961C2405.26 50.9741 2407.8 54.2541 2410.58 57.2831C2414.71 61.7701 2418.64 64.8001 2422.93 66.8171C2427.86 69.1361 2433.26 70.1561 2439.92 70.0211C2447.59 69.8671 2457.06 68.0911 2468.14 64.7431C2480.49 61.0011 2494.81 55.3701 2511.94 47.5291C2569.07 16.9591 2602.27 -14.5739 2613.3 -48.8279L2613.34 -48.9109C2627.41 -87.8009 2617.22 -128.145 2584.68 -162.508C2552.92 -195.691 2501.98 -214.675 2435.26 -232.971C2367.7 -251.309 2284.87 -261.709 2202.08 -262.25C2114.58 -262.839 2034.27 -252.696 1969.81 -232.965L1969.67 -232.922C1909.35 -214.689 1867.99 -186.754 1853.21 -154.258C1837.12 -118.906 1853.21 -80.2039 1897.35 -48.0749L1897.59 -47.8869ZM2438.81 71.5131C2431.88 71.5131 2425.95 70.3191 2420.74 67.8731C2416.16 65.7181 2412 62.5421 2407.72 57.8771C2404.9 54.8071 2402.34 51.5051 2399.29 47.5051L2398.29 46.1921C2397.8 45.5621 2397.32 44.9281 2396.79 44.2901C2393.16 39.5901 2389.06 34.5921 2383.88 29.8711C2371.5 18.6551 2356.06 12.2291 2335.26 9.64914C2310.62 6.59314 2275.71 5.90614 2239.09 5.42014C2234.16 5.35614 2229.16 5.29412 2224.12 5.23312L2222.77 5.21613C2189.26 4.80713 2151.35 4.34611 2114.19 2.57211C2064.01 0.177113 2023.29 -4.25087 1989.7 -10.9669C1947.62 -19.3769 1916.56 -31.2499 1894.73 -47.2649L1894.48 -47.4489C1850.08 -79.8719 1833.93 -118.902 1850.16 -154.571C1865.14 -187.481 1907.03 -215.764 1968.11 -234.21L1968.25 -234.249C2033.21 -254.112 2114.04 -264.313 2202.1 -263.732C2285.46 -263.188 2368.79 -252.72 2436.81 -234.257C2504.06 -215.817 2555.42 -196.664 2587.52 -163.12C2620.31 -128.5 2630.56 -87.8699 2616.4 -48.7049V-48.6589C2605.27 -14.0929 2571.85 17.7071 2514.18 48.5551C2496.83 56.5071 2482.34 62.1981 2469.82 65.9931C2458.11 69.5321 2448.37 71.3331 2440.05 71.5011C2439.63 71.5091 2439.23 71.5141 2438.81 71.5141V71.5131Z" fill="#DD6929"/>
<path fill-rule="evenodd" clip-rule="evenodd" d="M1606.47 38.7251C1677.81 90.8691 1814.5 103.031 1911.16 107.644C1963.08 110.122 2016.12 110.768 2062.92 111.339L2065.06 111.365C2072.08 111.451 2078.99 111.536 2085.82 111.626C2137.27 112.307 2186.32 113.276 2221.13 117.593C2251.13 121.315 2273.38 130.548 2291.17 146.649C2298.52 153.333 2304.3 160.383 2309.43 167.006C2310.62 168.522 2311.78 170.028 2312.91 171.514C2316.84 176.663 2320.56 181.525 2324.66 185.951C2330.45 192.283 2336.04 196.583 2342.22 199.484C2349.28 202.808 2357.36 204.33 2366.92 204.139C2378.01 203.916 2391.12 201.469 2407 196.658C2424.38 191.407 2444.5 183.498 2468.56 172.478C2548.8 129.562 2595.36 85.3081 2610.82 37.2271V36.9371L2610.96 36.8821C2630.58 -17.5909 2616.28 -74.0879 2570.65 -122.237C2526.05 -168.833 2454.59 -195.481 2360.98 -221.155C2266.19 -246.879 2150.04 -261.465 2033.89 -262.225C1911.39 -263.04 1799.08 -248.893 1708.74 -221.349V-221.346L1708.02 -221.126C1664.39 -207.952 1628.02 -191.435 1599.9 -172.032C1573.12 -153.547 1554.39 -132.867 1544.25 -110.569C1521.66 -60.9209 1544.25 -6.57385 1606.22 38.5381L1606.47 38.7251ZM2365.31 205.638C2355.6 205.638 2347.3 203.964 2340.03 200.539C2333.56 197.501 2327.77 193.055 2321.78 186.546C2317.66 182.077 2313.94 177.193 2309.97 172.021C2308.84 170.538 2307.68 169.035 2306.51 167.521C2301.42 160.943 2295.69 153.947 2288.4 147.338C2271.07 131.632 2249.43 122.636 2220.36 119.027C2185.86 114.749 2137 113.785 2085.72 113.107C2078.92 113.017 2071.99 112.932 2064.98 112.847L2062.84 112.82C2016 112.249 1962.89 111.602 1910.85 109.119C1840.58 105.766 1783.57 99.5661 1736.54 90.1651C1677.64 78.3911 1634.16 61.7691 1603.6 39.3481L1603.35 39.1642C1541.12 -6.24084 1518.47 -60.9159 1541.21 -110.882C1551.44 -133.371 1570.32 -154.228 1597.34 -172.873C1625.61 -192.389 1662.17 -209.008 1706 -222.271L1706.34 -222.377C1797.3 -250.223 1910.57 -264.527 2033.93 -263.707C2150.59 -262.944 2267.31 -248.289 2362.53 -222.44C2456.64 -196.622 2528.55 -169.806 2573.49 -122.849C2619.43 -74.3539 2633.8 -17.4459 2613.95 37.3951L2613.82 37.6571C2598.21 85.9491 2551.41 130.39 2470.8 173.503C2446.52 184.635 2426.23 192.604 2408.71 197.908C2392.32 202.863 2378.71 205.386 2367.05 205.62C2366.48 205.632 2365.89 205.638 2365.31 205.638Z" fill="#DD6929"/>
<path fill-rule="evenodd" clip-rule="evenodd" d="M1853.27 -262.241C1781.46 -262.241 1711.7 -258.153 1645.68 -250.071C1572.45 -241.108 1505.36 -227.389 1446.25 -209.296C1390.05 -192.323 1343.19 -171.047 1306.98 -146.053C1272.48 -122.241 1248.36 -95.6049 1235.29 -66.8819C1220.85 -35.1399 1220.39 -2.30186 1233.91 30.7181C1247.61 64.1411 1274.92 95.9131 1315.08 125.15C1406.94 192.548 1583.22 208.247 1707.82 214.192C1774.61 217.379 1842.81 218.21 1902.98 218.944C1912.98 219.066 1922.78 219.185 1932.43 219.313C1998.53 220.187 2061.55 221.432 2106.22 226.971C2144.54 231.726 2172.96 243.529 2195.69 264.116C2205.06 272.605 2212.48 281.688 2219.14 290.239C2220.38 291.843 2221.59 293.435 2222.81 295.012L2223.59 296.029C2228.4 302.33 2233.38 308.846 2238.72 314.621C2246.26 322.82 2253.48 328.391 2261.49 332.153C2270.77 336.513 2281.36 338.512 2293.92 338.258C2308.33 337.969 2325.35 334.802 2345.92 328.573C2368.29 321.801 2394.23 311.613 2425.2 297.428C2528.49 242.167 2588.42 185.188 2608.36 123.282L2608.38 123.199C2633.84 52.9781 2615.46 -19.8849 2556.64 -81.9659C2499.2 -141.975 2407.19 -176.285 2286.7 -209.338C2164.71 -242.447 2015.2 -261.221 1865.72 -262.2C1861.57 -262.227 1857.42 -262.241 1853.27 -262.241ZM2291.8 339.762C2279.32 339.762 2268.67 337.611 2259.3 333.207C2251.03 329.309 2243.55 323.592 2235.84 315.215C2230.5 309.397 2225.48 302.859 2220.67 296.536L2219.89 295.52C2218.67 293.945 2217.46 292.354 2216.22 290.753C2209.6 282.248 2202.21 273.219 2192.92 264.805C2170.63 244.613 2142.84 233.047 2105.45 228.406C2061.08 222.905 1998.26 221.666 1932.34 220.794C1922.68 220.666 1912.89 220.547 1902.92 220.426C1842.68 219.691 1774.41 218.859 1707.51 215.667C1617.17 211.356 1543.86 203.385 1483.4 191.297C1407.67 176.159 1351.76 154.788 1312.47 125.961C1272.09 96.5612 1244.63 64.6131 1230.86 31.0011C1217.25 -2.21687 1217.72 -35.2549 1232.25 -67.1949C1245.4 -96.1079 1269.68 -122.922 1304.42 -146.894C1340.86 -172.052 1388.02 -193.467 1444.57 -210.543C1503.96 -228.722 1571.36 -242.504 1644.9 -251.507C1714.98 -260.086 1789.3 -264.186 1865.75 -263.681C2015.76 -262.7 2165.8 -243.856 2288.23 -210.624C2409.27 -177.427 2501.7 -142.948 2559.47 -82.5769C2618.55 -20.2379 2637.01 52.9072 2611.47 123.405V123.451C2591.45 185.67 2531.26 242.915 2427.44 298.453C2396.23 312.75 2370.16 322.998 2347.6 329.824C2326.53 336.195 2309.03 339.439 2294.05 339.739C2293.29 339.754 2292.56 339.762 2291.8 339.762Z" fill="#DD6929"/>
<path fill-rule="evenodd" clip-rule="evenodd" d="M1682.33 -262.224C1594.49 -262.224 1509.16 -257.224 1428.42 -247.34C1338.86 -236.376 1256.79 -219.595 1184.48 -197.461C1115.7 -176.693 1058.37 -150.658 1014.06 -120.075C971.843 -90.9368 942.33 -58.3428 926.338 -23.1958C908.664 15.6442 908.099 55.8242 924.651 96.2252C941.406 137.12 974.816 175.992 1023.95 211.763C1071.63 246.742 1139.5 272.68 1231.46 291.062C1305.07 305.778 1394.38 315.485 1504.48 320.739C1586.18 324.637 1669.54 325.653 1743.11 326.55L1744.24 326.563C1756.02 326.707 1767.62 326.848 1779.05 327C1859.8 328.068 1936.79 329.587 1991.3 336.35C2037.93 342.135 2072.55 356.508 2100.22 381.582C2111.71 392.019 2120.78 403.077 2128.85 413.471C2130.7 415.851 2132.5 418.214 2134.29 420.546C2140.51 428.671 2146.39 436.347 2152.78 443.29C2162.02 453.346 2170.9 460.187 2180.76 464.82C2192.25 470.216 2205.38 472.685 2220.92 472.377C2238.67 472.02 2259.58 468.131 2284.81 460.488C2312.22 452.196 2343.94 439.729 2381.84 422.376C2508.22 354.775 2581.53 285.075 2605.9 209.336L2605.94 209.253C2637.05 123.358 2614.58 34.2362 2542.63 -41.6938C2472.36 -115.121 2359.8 -157.094 2212.39 -197.522C2063.2 -238.017 1880.36 -260.978 1697.54 -262.175C1692.47 -262.207 1687.4 -262.223 1682.33 -262.224ZM2218.32 473.885C2203.05 473.885 2190.02 471.257 2178.59 465.874C2168.43 461.104 2159.33 454.117 2149.92 443.884C2143.49 436.899 2137.59 429.202 2131.35 421.052C2129.58 418.721 2127.78 416.363 2125.91 413.986C2117.88 403.637 2108.87 392.634 2097.45 382.271C2070.21 357.593 2036.24 343.456 1990.52 337.784C1936.33 331.061 1859.52 329.547 1778.96 328.481C1767.54 328.33 1755.94 328.188 1744.17 328.045L1743.02 328.031C1669.41 327.134 1585.97 326.117 1504.17 322.213C1393.75 316.945 1304.16 307.202 1230.25 292.428C1137.7 273.927 1069.37 247.807 1021.34 212.574C971.986 176.642 938.425 137.592 921.594 96.5092C904.961 55.9092 905.532 15.5292 923.296 -23.5108C939.373 -58.8468 969.047 -91.6188 1011.5 -120.916C1056.04 -151.664 1113.68 -177.837 1182.8 -198.708C1255.39 -220.927 1337.76 -237.771 1427.64 -248.775C1513.3 -259.261 1604.1 -264.267 1697.59 -263.657C1880.92 -262.456 2064.31 -239.426 2213.95 -198.808C2361.86 -158.235 2474.86 -116.095 2545.46 -42.3048C2617.64 33.8802 2640.21 123.289 2609.01 209.458V209.505C2584.56 285.557 2510.99 355.524 2384.09 423.403C2345.96 440.866 2314.07 453.393 2286.49 461.739C2260.77 469.526 2239.37 473.489 2221.05 473.858C2220.12 473.877 2219.22 473.885 2218.32 473.885Z" fill="#DD6929"/>
<path fill-rule="evenodd" clip-rule="evenodd" d="M1511.38 -262.208C1407.53 -262.208 1306.63 -256.296 1211.16 -244.608C1105.26 -231.644 1008.22 -211.8 922.714 -185.628C841.366 -161.065 773.552 -130.27 721.141 -94.096C671.209 -59.633 636.302 -21.0799 617.387 20.4901C596.483 66.4281 595.81 113.95 615.389 161.735C635.203 210.099 674.716 256.071 732.826 298.375C789.232 339.761 869.53 370.447 978.314 392.193C1065.37 409.595 1170.96 421.074 1301.13 427.285C1397.7 431.894 1496.25 433.095 1583.2 434.154C1597.58 434.329 1611.75 434.501 1625.67 434.686C1721.07 435.948 1812.02 437.742 1876.39 445.727C1931.34 452.546 1972.13 469.49 2004.74 499.049C2018.34 511.374 2029.02 524.43 2038.55 536.704C2040.73 539.515 2042.86 542.304 2044.97 545.061L2045.25 545.429C2052.52 554.908 2059.39 563.861 2066.85 571.96C2077.81 583.885 2088.37 591.996 2100.05 597.486C2113.72 603.92 2129.35 606.873 2147.94 606.495C2168.99 606.072 2193.78 601.463 2223.72 592.404C2256.17 582.583 2293.71 567.837 2338.46 547.325C2487.97 467.364 2574.66 384.923 2603.44 295.335L2603.55 295.064C2640.23 193.582 2613.61 88.299 2528.62 -1.42197C2445.49 -88.272 2312.39 -137.905 2138.11 -185.707C1961.71 -233.586 1745.52 -260.735 1529.36 -262.149C1523.37 -262.188 1517.38 -262.208 1511.38 -262.208ZM2144.81 608.009C2126.77 608.009 2111.39 604.903 2097.87 598.541C2085.89 592.914 2075.12 584.657 2063.98 572.555C2056.49 564.413 2049.61 555.439 2042.32 545.937L2042.04 545.567C2039.94 542.812 2037.8 540.026 2035.62 537.218C2026.14 524.991 2015.49 511.988 2001.97 499.738C1969.81 470.575 1929.65 453.867 1875.61 447.161C1811.55 439.216 1720.79 437.427 1625.58 436.168C1611.65 435.983 1597.48 435.811 1583.11 435.636C1496.11 434.575 1397.51 433.373 1300.82 428.76C1170.34 422.534 1064.45 411.02 977.106 393.559C867.73 371.694 786.972 340.825 730.219 299.186C671.886 256.721 632.224 210.571 612.333 162.018C592.672 114.035 593.348 66.3121 614.341 20.1761C633.342 -21.5839 668.411 -60.3139 718.577 -94.937C771.227 -131.277 839.341 -162.208 921.029 -186.875C1006.81 -213.133 1104.17 -233.041 1210.38 -246.044C1311.61 -258.437 1418.96 -264.355 1529.41 -263.631C1746.08 -262.213 1962.8 -234.995 2139.65 -186.993C2314.47 -139.047 2447.97 -89.2469 2531.45 -2.03494C2616.76 88.0111 2643.44 193.669 2606.55 295.497V295.761L2606.45 295.813C2577.48 385.597 2490.57 468.202 2340.71 548.351C2295.71 568.975 2258.02 583.779 2225.4 593.654C2194.98 602.856 2169.69 607.542 2148.07 607.976C2146.98 607.998 2145.91 608.009 2144.81 608.009Z" fill="#DD6929"/>
<path fill-rule="evenodd" clip-rule="evenodd" d="M661.006 -173.815L660.924 -173.789C567.022 -145.435 488.73 -109.882 428.217 -68.1169C370.569 -28.3269 330.267 16.1831 308.43 64.1771C284.297 117.213 283.522 172.077 306.123 227.244C328.998 283.079 374.611 336.151 441.695 384.988C475.267 409.618 517.388 431.448 566.9 449.875C612.389 466.807 665.64 481.425 725.166 493.325C825.658 513.413 947.544 526.664 1097.79 533.832C1209.17 539.147 1322.89 540.534 1423.22 541.757C1439.87 541.96 1456.21 542.16 1472.29 542.372C1582.33 543.828 1687.25 545.898 1761.47 555.105C1824.71 562.951 1871.68 582.464 1909.28 616.516C1924.86 630.652 1937.21 645.739 1948.26 659.937C1949.91 662.082 1951.56 664.216 1953.18 666.335L1955.67 669.574C1964.14 680.643 1972.13 691.097 1980.91 700.628C1993.57 714.408 2005.78 723.79 2019.32 730.154C2035.23 737.624 2053.42 741.051 2074.93 740.615C2099.32 740.124 2128.01 734.794 2162.63 724.32C2200.06 712.99 2243.38 695.966 2295.1 672.273C2376.73 628.605 2443.33 583.316 2492.92 537.707C2547.35 487.647 2583.72 435.07 2600.96 381.445V381.143L2601.11 381.09C2643.42 263.945 2612.71 142.409 2514.6 38.8481C2418.64 -61.4169 2265 -118.712 2063.83 -173.891C1860.22 -229.155 1610.67 -260.491 1361.19 -262.124C1234.03 -262.951 1110.44 -256.145 993.897 -241.877C871.694 -226.916 759.69 -204.016 661.006 -173.815ZM2071.33 742.133C2050.53 742.133 2032.76 738.549 2017.14 731.209C2003.31 724.709 1990.88 715.179 1978.05 701.222C1969.25 691.647 1961.23 681.173 1952.74 670.082L1950.25 666.844C1948.63 664.725 1947 662.593 1945.33 660.451C1934.33 646.3 1922.02 631.266 1906.5 617.205C1869.36 583.549 1823.01 564.272 1760.69 556.539C1686.78 547.371 1582.06 545.307 1472.2 543.854C1456.13 543.642 1439.78 543.442 1423.2 543.24C1322.76 542.015 1208.98 540.627 1097.48 535.307C946.923 528.124 824.74 514.837 723.96 494.691C664.176 482.74 610.69 468.054 564.98 451.042C515.197 432.513 472.84 410.562 439.088 385.798C371.783 336.8 326.019 283.551 303.067 227.528C280.383 172.162 281.162 117.097 305.384 63.8631C327.309 15.6791 367.773 -29.0079 425.652 -68.9569C486.392 -110.88 564.968 -146.565 659.202 -175.024L659.254 -175.041C758.236 -205.338 870.563 -228.308 993.121 -243.312C1109.93 -257.613 1233.78 -264.442 1361.23 -263.606C1611.23 -261.969 1861.31 -230.564 2065.38 -175.176C2267.08 -119.853 2421.12 -62.3899 2517.44 38.2371C2615.88 142.149 2646.63 264.095 2604.07 381.614L2603.97 381.887C2586.64 435.597 2550.21 488.251 2495.7 538.389C2445.97 584.108 2379.23 629.498 2297.35 673.3C2245.4 697.103 2201.89 714.186 2164.31 725.57C2129.21 736.188 2100 741.592 2075.05 742.096C2073.81 742.119 2072.57 742.132 2071.33 742.133Z" fill="#DD6929"/>
<path fill-rule="evenodd" clip-rule="evenodd" d="M1576.94 -215.153C1527.11 -200.092 1485.56 -181.214 1453.44 -159.043C1422.8 -137.895 1401.38 -114.237 1389.77 -88.7269C1376.94 -60.5329 1376.53 -31.3669 1388.55 -2.03787C1400.71 27.6501 1424.97 55.8721 1460.64 81.8441C1542.22 141.694 1698.8 155.637 1809.5 160.917C1868.88 163.752 1929.49 164.49 1982.98 165.141L1984.71 165.163C1992.97 165.263 2001.11 165.363 2009.12 165.469C2067.89 166.247 2123.95 167.354 2163.66 172.281C2197.86 176.522 2223.19 187.04 2243.42 205.382C2251.78 212.955 2258.38 221.027 2264.28 228.622C2265.58 230.271 2266.82 231.909 2268.06 233.527L2268.59 234.222C2273 239.962 2277.16 245.384 2281.68 250.286C2288.36 257.545 2294.74 262.48 2301.84 265.818C2310.01 269.661 2319.36 271.423 2330.43 271.198C2343.18 270.943 2358.25 268.135 2376.48 262.615C2396.35 256.602 2419.38 247.554 2446.88 234.952C2538.64 185.862 2591.91 135.243 2609.6 80.2541V80.1711C2632.24 17.7911 2615.9 -46.9409 2563.66 -102.102C2512.63 -155.403 2430.89 -185.882 2323.84 -215.248C2215.46 -244.664 2082.62 -261.344 1949.8 -262.213C1809.47 -263.129 1680.6 -246.879 1577.14 -215.213L1576.94 -215.153ZM2328.56 272.699C2317.45 272.699 2307.98 270.788 2299.66 266.872C2292.26 263.397 2285.65 258.316 2278.82 250.88C2274.26 245.937 2270.08 240.493 2265.65 234.73L2265.12 234.032C2263.89 232.398 2262.63 230.766 2261.36 229.138C2255.5 221.588 2248.93 213.569 2240.65 206.071C2220.86 188.125 2196.16 177.843 2162.88 173.716C2123.49 168.827 2067.62 167.726 2009.02 166.951C2000.89 166.845 1992.77 166.742 1984.64 166.644L1982.89 166.622C1929.37 165.97 1868.68 165.232 1809.19 162.392C1728.89 158.561 1663.72 151.476 1609.97 140.73C1542.66 127.275 1492.96 108.278 1458.04 82.6551C1422.14 56.5221 1397.73 28.1231 1385.49 -1.75488C1373.39 -31.2819 1373.81 -60.6489 1386.73 -89.0399C1398.42 -114.741 1420 -138.576 1450.88 -159.884C1483.27 -182.247 1525.19 -201.282 1575.45 -216.46L1575.65 -216.516C1679.57 -248.302 1808.98 -264.63 1949.84 -263.695C2083.18 -262.823 2216.55 -246.073 2325.37 -216.533C2432.97 -187.024 2515.13 -156.376 2566.49 -102.714C2618.99 -47.2959 2635.39 17.7241 2612.71 80.3761L2612.69 80.4231C2594.91 135.726 2541.41 186.608 2449.12 235.978C2421.39 248.69 2398.2 257.799 2378.16 263.866C2359.44 269.53 2343.86 272.412 2330.56 272.679C2329.89 272.692 2329.21 272.699 2328.56 272.699Z" fill="#DD6929"/>
<path fill-rule="evenodd" clip-rule="evenodd" d="M1315.44 -203.4L1315.36 -203.374C1252.88 -184.508 1200.78 -160.853 1160.52 -133.064C1122.16 -106.59 1095.35 -76.9739 1080.82 -45.0399C1064.76 -9.74893 1064.24 26.7601 1079.28 63.4711C1094.51 100.63 1124.87 135.952 1169.52 168.457C1212.83 200.233 1274.49 223.796 1358.03 240.496C1424.93 253.869 1506.08 262.69 1606.14 267.465C1680.36 271.007 1756.14 271.931 1823 272.747C1834.12 272.881 1845.02 273.014 1855.73 273.156C1929.16 274.128 1999.18 275.51 2048.75 281.66C2091.22 286.929 2122.74 300.017 2147.94 322.849C2158.38 332.313 2166.64 342.383 2173.99 351.855C2175.04 353.205 2176.07 354.549 2177.08 355.883L2178.95 358.285C2184.33 365.329 2189.9 372.61 2195.76 378.956C2204.14 388.085 2212.2 394.291 2221.13 398.487C2231.51 403.366 2243.38 405.604 2257.43 405.317C2273.5 404.996 2292.45 401.468 2315.37 394.532C2340.29 386.994 2369.11 375.667 2403.52 359.902C2518.34 298.478 2584.98 235.142 2607.14 166.309V166.226C2635.44 88.1631 2615.02 7.17108 2549.64 -61.8289C2485.78 -128.546 2383.5 -166.688 2249.56 -203.43C2113.95 -240.232 1947.79 -261.099 1781.62 -262.187C1696.98 -262.739 1614.64 -258.205 1537.05 -248.705C1455.69 -238.746 1381.13 -223.503 1315.44 -203.4ZM2255.06 406.824C2241.22 406.824 2229.35 404.434 2218.95 399.541C2209.73 395.209 2201.45 388.857 2192.88 379.551C2187 373.162 2181.43 365.857 2176.01 358.794L2174.16 356.392C2173.14 355.049 2172.12 353.708 2171.07 352.369C2163.74 342.944 2155.55 332.927 2145.17 323.538C2120.42 301.102 2089.52 288.251 2047.97 283.095C1998.71 276.983 1928.88 275.607 1855.64 274.638C1844.93 274.495 1834.03 274.363 1822.97 274.229C1756 273.412 1680.16 272.487 1605.83 268.94C1505.46 264.15 1424.01 255.293 1356.82 241.862C1272.69 225.043 1210.57 201.297 1166.91 169.267C1122.04 136.602 1091.53 101.102 1076.23 63.7551C1061.1 26.8451 1061.62 -9.86493 1077.77 -45.3539C1092.39 -77.4779 1119.37 -107.271 1157.96 -133.905C1198.44 -161.85 1250.83 -185.639 1313.63 -204.609L1313.69 -204.626C1379.68 -224.825 1454.56 -240.138 1536.27 -250.141C1614.14 -259.674 1696.68 -264.22 1781.67 -263.669C1948.35 -262.578 2115.07 -241.642 2251.11 -204.716C2385.58 -167.829 2488.28 -129.519 2552.48 -62.4409C2618.11 6.81707 2638.61 88.0941 2610.25 166.432L2610.23 166.478C2588 235.622 2521.12 299.227 2405.74 360.929C2371.12 376.804 2342.13 388.191 2317.05 395.782C2293.65 402.862 2274.2 406.465 2257.56 406.798C2256.72 406.815 2255.9 406.824 2255.06 406.824Z" fill="#DD6929"/>
<path fill-rule="evenodd" clip-rule="evenodd" d="M878.338 255.033L878.395 255.074C930.43 293.252 1004.52 321.564 1104.89 341.629C1185.22 357.687 1282.67 368.28 1402.8 374.012C1491.92 378.264 1582.89 379.374 1663.15 380.352C1676.42 380.513 1689.5 380.673 1702.37 380.843C1790.44 382.009 1874.42 383.667 1933.83 391.038C1984.64 397.341 2022.32 412.999 2052.47 440.316C2065.01 451.669 2074.88 463.738 2083.7 475.089C2085.69 477.658 2087.66 480.229 2089.63 482.802L2089.8 483.024C2096.53 491.816 2102.9 500.12 2109.82 507.625C2119.9 518.609 2129.63 526.085 2140.4 531.154C2153.01 537.069 2167.4 539.773 2184.43 539.436C2203.82 539.048 2226.68 534.799 2254.28 526.447C2284.2 517.387 2318.84 503.781 2360.16 484.85C2498.07 411.073 2578.09 335.008 2604.66 252.364L2604.68 252.28C2638.65 158.555 2614.11 61.3041 2535.61 -21.5579C2458.93 -101.694 2336.08 -147.497 2175.25 -191.614C2012.46 -235.801 1812.94 -260.856 1613.45 -262.161C1511.73 -262.826 1412.96 -257.38 1319.79 -245.974C1222.06 -234.01 1132.5 -215.698 1053.6 -191.545C978.536 -168.878 915.962 -140.464 867.6 -107.085C821.527 -75.2849 789.314 -39.7109 771.861 -1.35193C752.575 41.0371 751.955 84.8881 770.021 128.981C788.299 173.596 824.743 216.006 878.338 255.033ZM2181.56 540.947C2164.92 540.947 2150.72 538.08 2138.22 532.208C2127.15 527.002 2117.21 519.38 2106.94 508.219C2100 500.672 2093.62 492.346 2086.87 483.531L2086.7 483.309C2084.76 480.768 2082.78 478.194 2080.77 475.601C2072 464.298 2062.16 452.284 2049.72 441.005C2020 414.084 1982.94 398.662 1933.06 392.472C1873.96 385.14 1790.17 383.488 1702.27 382.325C1689.41 382.155 1676.33 381.995 1663.06 381.834C1582.75 380.854 1491.73 379.745 1402.49 375.487C1282.05 369.74 1184.3 359.112 1103.68 342.994C1002.74 322.816 928.201 294.327 875.815 255.905L875.782 255.88C821.936 216.682 785.325 174.082 766.965 129.265C748.816 84.9721 749.44 40.9211 768.817 -1.66592C786.356 -40.2149 818.73 -75.9659 865.035 -107.926C913.637 -141.469 976.511 -170.022 1051.91 -192.791C1131.1 -217.03 1220.96 -235.406 1319.01 -247.409C1412.46 -258.849 1511.53 -264.304 1613.49 -263.643C1813.5 -262.334 2013.55 -237.21 2176.81 -192.9C2338.16 -148.639 2461.43 -102.667 2538.45 -22.1699C2617.2 60.9471 2641.82 158.487 2607.79 252.485L2607.77 252.532C2581.11 335.491 2500.84 411.819 2362.41 485.878C2320.85 504.918 2286.07 518.584 2255.96 527.697C2227.86 536.193 2204.52 540.517 2184.56 540.917C2183.55 540.938 2182.56 540.947 2181.56 540.947Z" fill="#DD6929"/>
<path fill-rule="evenodd" clip-rule="evenodd" d="M1425.9 -262.2C1314.04 -262.2 1205.36 -255.832 1102.53 -243.243C988.464 -229.278 883.928 -207.903 791.826 -179.711C704.193 -153.248 631.14 -120.075 574.679 -81.1059C520.888 -43.9799 483.281 -2.44786 462.906 42.3341C440.389 91.8211 439.666 143.014 460.755 194.49C482.098 246.589 524.661 296.112 587.258 341.682C618.58 364.661 657.878 385.027 704.071 402.22C746.514 418.016 796.196 431.656 851.739 442.759C945.513 461.504 1059.25 473.869 1199.46 480.559C1303.44 485.521 1409.59 486.815 1503.24 487.956L1503.81 487.963C1519.1 488.149 1534.16 488.334 1548.98 488.529C1651.71 489.889 1749.65 491.822 1818.92 500.416C1878.04 507.749 1921.91 525.978 1957.01 557.782C1971.54 570.946 1983.08 585.045 1993.4 598.321C1995.24 600.697 1997.06 603.06 1998.85 605.403L2000.32 607.317C2008.23 617.663 2015.72 627.435 2023.88 636.294C2035.7 649.148 2047.07 657.895 2059.68 663.82C2074.48 670.773 2091.44 673.959 2111.43 673.555C2134.16 673.098 2160.91 668.129 2193.15 658.363C2228.09 647.795 2268.53 631.909 2316.78 609.799C2392.95 569.053 2455.09 526.791 2501.37 484.228C2552.19 437.498 2586.13 388.422 2602.2 338.363L2602.33 338.101C2641.82 228.788 2613.17 115.366 2521.6 18.7131C2432.07 -74.8449 2288.69 -128.308 2100.97 -179.799C1910.97 -231.37 1678.11 -260.612 1445.28 -262.136C1438.82 -262.178 1432.36 -262.2 1425.9 -262.2ZM2108.07 675.071C2088.65 675.071 2072.08 671.726 2057.5 664.875C2044.59 658.813 2033.01 649.92 2021.01 636.889C2012.82 627.986 2005.33 618.193 1997.39 607.824L1995.93 605.91C1994.14 603.569 1992.33 601.209 1990.47 598.835C1980.2 585.606 1968.69 571.56 1954.24 558.471C1919.59 527.062 1876.34 509.071 1818.14 501.85C1749.18 493.295 1651.43 491.368 1548.89 490.011C1534.08 489.815 1519.01 489.631 1503.73 489.444L1503.16 489.438C1409.45 488.295 1303.24 487.001 1199.15 482.034C1058.63 475.329 944.595 462.928 850.533 444.126C794.736 432.971 744.814 419.265 702.153 403.387C655.687 386.093 616.154 365.606 584.651 342.492C521.834 296.761 479.12 247.062 457.699 194.774C436.528 143.099 437.254 91.7051 459.862 42.0201C480.323 -2.95186 518.09 -44.6599 572.114 -81.9469C628.813 -121.081 702.168 -154.393 790.14 -180.957C882.525 -209.235 987.366 -230.674 1101.75 -244.678C1210.77 -258.024 1326.35 -264.396 1445.32 -263.618C1678.67 -262.09 1912.06 -232.779 2102.53 -181.083C2290.75 -129.45 2434.55 -75.8179 2524.43 18.1011C2616.32 115.077 2645.04 228.867 2605.33 338.524V338.778L2605.21 338.831C2589.03 388.964 2555.04 438.113 2504.14 484.909C2457.74 527.581 2395.45 569.946 2319.03 610.826C2270.52 633.046 2229.94 648.991 2194.85 659.613C2162.1 669.523 2134.86 674.568 2111.56 675.035C2110.38 675.06 2109.23 675.071 2108.07 675.071Z" fill="#DD6929"/>
<path fill-rule="evenodd" clip-rule="evenodd" d="M1254.95 -262.184C1127.07 -262.184 1002.82 -254.904 885.267 -240.512C754.864 -224.546 635.352 -200.109 530.052 -167.877C429.85 -137.62 346.319 -99.6868 281.757 -55.1268C220.25 -12.6748 177.251 34.8132 153.949 86.0192C128.207 142.605 127.375 201.14 151.492 260C175.896 319.569 224.559 376.192 296.13 428.296C331.952 454.577 376.899 477.869 429.728 497.532C478.265 515.598 535.079 531.195 598.594 543.892C705.802 565.323 835.832 579.459 996.117 587.108C1114.98 592.779 1236.29 594.257 1343.32 595.562C1361.01 595.777 1378.45 595.99 1395.6 596.217C1512.97 597.771 1624.88 599.978 1704 609.795C1771.44 618.16 1821.49 638.958 1861.53 675.251C1878.17 690.341 1891.35 706.423 1903.11 721.555C1905.79 725.011 1908.42 728.444 1911 731.834L1911.25 732.164C1920.24 743.883 1928.73 754.954 1937.95 764.965C1951.46 779.673 1964.5 789.692 1978.97 796.487C1995.95 804.475 2015.44 808.128 2038.44 807.676C2064.5 807.15 2095.13 801.459 2132.06 790.285C2172.06 778.169 2218.3 760.007 2273.42 734.75C2360.49 688.162 2431.54 639.847 2484.46 591.188C2542.54 537.778 2581.32 481.69 2599.72 424.474L2599.75 424.391C2645.08 299.322 2612.35 169.551 2507.59 58.9852C2405.22 -47.9868 2241.3 -109.113 2026.68 -167.982C1809.47 -226.938 1543.26 -260.368 1277.1 -262.11C1269.72 -262.159 1262.34 -262.184 1254.95 -262.184ZM2034.61 809.194C2012.39 809.194 1993.43 805.37 1976.79 797.538C1962.02 790.61 1948.77 780.443 1935.08 765.556C1925.83 755.501 1917.33 744.416 1908.33 732.671L1908.08 732.34C1905.49 728.95 1902.86 725.521 1900.18 722.067C1888.47 706.983 1875.33 690.955 1858.75 675.938C1819.17 640.042 1769.74 619.48 1703.22 611.228C1624.41 601.45 1512.7 599.249 1395.51 597.698C1378.37 597.471 1360.93 597.258 1343.24 597.043C1236.15 595.737 1114.78 594.258 995.809 588.582C835.211 580.918 704.884 566.746 597.388 545.257C533.619 532.51 476.563 516.845 427.808 498.699C374.706 478.935 329.528 455.52 293.523 429.105C221.731 376.841 172.917 320.04 148.433 260.283C124.237 201.225 125.069 142.489 150.908 85.7062C174.293 34.3102 217.454 -13.3558 279.192 -55.9698C343.991 -100.694 427.827 -138.765 528.367 -169.124C633.947 -201.442 753.766 -225.943 884.491 -241.948C1009.09 -257.201 1141.2 -264.487 1277.14 -263.594C1543.82 -261.849 1810.56 -228.349 2028.24 -169.27C2243.38 -110.256 2407.7 -48.9619 2510.42 58.3701C2615.44 169.193 2648.25 299.252 2602.85 424.596L2602.83 424.64C2584.37 482.035 2545.48 538.297 2487.23 591.867C2434.19 640.637 2362.99 689.053 2275.65 735.774C2220.31 761.139 2173.91 779.368 2133.74 791.527C2096.33 802.85 2065.19 808.622 2038.56 809.156C2037.24 809.185 2035.92 809.194 2034.61 809.194Z" fill="#DD6929"/>
<path fill-rule="evenodd" clip-rule="evenodd" d="M1169.48 -262.176C1033.59 -262.176 901.56 -254.44 776.638 -239.145C638.064 -222.18 511.065 -196.211 399.166 -161.96C292.681 -129.806 203.909 -89.4929 135.297 -42.1379C69.9332 2.97714 24.2342 53.4451 -0.524879 107.863C-27.8867 167.997 -28.767 230.203 -3.14027 292.754C22.7952 356.058 74.5107 416.232 150.567 471.601C188.639 499.533 236.409 524.29 292.557 545.188C344.142 564.387 404.523 580.963 472.021 594.456C585.95 617.231 724.129 632.253 894.449 640.38C1020.71 646.405 1149.61 647.977 1263.34 649.363C1282.17 649.592 1300.69 649.818 1318.91 650.059C1443.61 651.71 1562.5 654.055 1646.55 664.483C1718.13 673.362 1771.26 695.445 1813.8 733.983C1831.47 749.996 1845.46 767.09 1857.96 783.17C1860.61 786.586 1863.21 789.98 1865.78 793.337L1866.54 794.337C1876.12 806.83 1885.15 818.627 1894.98 829.297C1909.37 844.947 1923.23 855.595 1938.6 862.82C1956.7 871.327 1977.42 875.224 2001.94 874.735C2029.66 874.18 2062.22 868.126 2101.52 856.24C2143.91 843.406 2193.05 824.103 2251.74 797.219C2344.28 747.713 2419.78 696.372 2476.01 644.667C2537.73 587.908 2578.95 528.302 2598.51 467.5L2598.53 467.417C2646.7 334.517 2611.89 196.617 2500.57 79.1191C2391.8 -34.5559 2217.6 -99.5139 1989.52 -162.075C1758.71 -224.723 1475.84 -260.246 1193.01 -262.098C1185.17 -262.15 1177.32 -262.176 1169.48 -262.176ZM1997.87 876.262C1974.25 876.262 1954.11 872.194 1936.42 863.872C1920.75 856.514 1906.67 845.718 1892.11 829.89C1882.26 819.183 1873.21 807.364 1863.62 794.848L1862.85 793.848C1860.26 790.459 1857.66 787.073 1855.03 783.689C1842.57 767.646 1828.62 750.611 1811.02 734.672C1768.94 696.529 1716.43 674.683 1645.78 665.918C1562.04 655.528 1443.33 653.189 1318.82 651.541C1300.61 651.3 1282.09 651.074 1263.29 650.845C1149.48 649.457 1020.52 647.885 894.138 641.855C723.503 633.713 585.034 618.656 470.816 595.823C403.061 582.279 342.441 565.635 290.639 546.355C234.218 525.355 186.212 500.477 147.958 472.412C71.681 416.881 19.8143 356.53 -6.19682 293.037C-31.9054 230.289 -31.0189 167.882 -3.57092 107.55C21.2806 52.9411 67.1393 2.29613 132.734 -42.9789C201.581 -90.4989 290.656 -130.95 397.482 -163.206C509.662 -197.543 636.966 -223.576 775.861 -240.581C908.242 -256.788 1048.59 -264.533 1193.05 -263.58C1476.39 -261.725 1759.8 -226.133 1991.07 -163.36C2219.68 -100.655 2394.3 -35.5289 2503.41 78.5071C2614.98 196.26 2649.85 334.449 2601.62 467.623L2601.59 467.669C2581.99 528.65 2540.67 588.429 2478.79 645.348C2422.42 697.164 2346.78 748.602 2253.97 798.242C2195.06 825.237 2145.78 844.606 2103.2 857.485C2063.42 869.526 2030.34 875.647 2002.06 876.217C2000.66 876.247 1999.26 876.262 1997.87 876.262Z" fill="#DD6929"/>
<path fill-rule="evenodd" clip-rule="evenodd" d="M998.529 -262.159C846.618 -262.159 699.027 -253.511 559.378 -236.414C404.464 -217.449 262.489 -188.417 137.396 -150.126C18.3374 -114.176 -80.9132 -69.1039 -157.623 -16.1589C-230.705 34.2821 -281.797 90.7071 -309.48 151.55C-340.071 218.782 -341.056 288.33 -312.404 358.262C-283.41 429.038 -225.592 496.311 -140.561 558.214C-97.9878 589.448 -44.5707 617.131 18.2135 640.499C75.893 661.967 143.406 680.501 218.878 695.588C346.245 721.049 500.713 737.841 691.103 746.928C832.062 753.656 975.969 755.412 1102.93 756.961L1115.03 757.109C1132.08 757.324 1148.92 757.532 1165.53 757.746C1304.86 759.592 1437.71 762.215 1531.64 773.863C1611.53 783.77 1670.85 808.424 1718.33 851.446C1738.09 869.371 1753.71 888.451 1767.67 906.398C1770.63 910.237 1773.55 914.038 1776.44 917.81L1777.04 918.603C1787.77 932.63 1797.93 945.886 1809.05 957.965C1825.12 975.46 1840.64 987.382 1857.88 995.489C1878.19 1005.03 1901.43 1009.4 1928.93 1008.85C1959.97 1008.23 1996.42 1001.46 2040.42 988.153C2087.93 973.77 2142.86 952.185 2208.36 922.174C2311.84 866.822 2396.23 809.431 2459.1 751.626C2528.11 688.17 2574.18 621.533 2596.05 553.555L2596.07 553.471C2649.91 404.91 2611.01 250.751 2486.56 119.391C2428.71 58.9431 2350.89 7.46806 2248.67 -37.9739C2164.06 -75.5869 2061.22 -110.217 1915.24 -150.259C1657.22 -220.293 1340.99 -260.003 1024.83 -262.073C1016.07 -262.13 1007.3 -262.159 998.529 -262.159ZM1924.29 1010.38C1897.95 1010.38 1875.48 1005.84 1855.7 996.541C1838.17 988.301 1822.42 976.23 1806.18 958.557C1795.03 946.435 1784.88 933.163 1774.11 919.107L1773.51 918.314C1770.6 914.512 1767.68 910.713 1764.74 906.917C1750.83 889.007 1735.26 869.986 1715.56 852.135C1668.53 809.513 1609.83 785.097 1530.85 775.301C1437.25 763.682 1304.59 761.066 1165.44 759.228C1148.84 759.014 1132 758.806 1114.95 758.591L1102.86 758.443C975.833 756.894 831.868 755.138 690.792 748.402C500.089 739.301 345.329 722.473 217.671 696.955C141.946 681.817 74.1935 663.215 16.2955 641.667C-46.7639 618.196 -100.414 590.392 -143.17 559.024C-228.422 496.96 -286.389 429.51 -315.463 358.546C-344.194 288.415 -343.207 218.666 -312.526 151.236C-284.754 90.2031 -233.501 33.6011 -160.188 -16.9999C-83.2387 -70.1099 16.3144 -115.32 135.711 -151.372C261.084 -189.75 403.366 -218.844 558.6 -237.849C706.558 -255.964 863.423 -264.609 1024.88 -263.555C1341.56 -261.481 1658.31 -221.701 1916.8 -151.544C2062.98 -111.442 2166.01 -76.7499 2250.8 -39.0569C2353.31 6.52007 2431.37 58.1491 2489.4 118.779C2614.09 250.392 2653.08 404.844 2599.16 553.677L2599.14 553.724C2577.23 621.878 2531.05 688.692 2461.85 752.308C2398.88 810.217 2314.34 867.718 2210.61 923.197C2144.88 953.326 2089.79 974.963 2042.1 989.398C1997.62 1002.85 1960.65 1009.7 1929.05 1010.33C1927.45 1010.36 1925.86 1010.38 1924.29 1010.38Z" fill="#DD6929"/>
<path fill-rule="evenodd" clip-rule="evenodd" d="M1084 -262.167C940.099 -262.167 800.292 -253.975 668.008 -237.779C521.264 -219.815 386.776 -192.314 268.281 -156.042C155.51 -121.991 61.4986 -79.2989 -11.1632 -29.1489C-80.3861 18.6301 -128.78 72.0761 -155.002 129.707C-183.979 193.39 -184.912 259.267 -157.775 325.509C-130.306 392.549 -75.5419 456.272 5.00181 514.908C45.3251 544.491 95.9189 570.71 155.384 592.844C210.015 613.177 273.963 630.733 345.449 645.023C466.097 669.14 612.419 685.048 792.776 693.653C926.491 700.035 1062.99 701.698 1183.41 703.166C1203.32 703.408 1222.93 703.648 1242.22 703.903C1374.24 705.651 1500.12 708.134 1589.09 719.172C1664.84 728.568 1721.07 751.937 1766.06 792.714C1784.78 809.691 1799.59 827.771 1812.81 844.785C1815.82 848.675 1818.78 852.535 1821.69 856.352C1831.88 869.652 1841.5 882.22 1852.01 893.631C1867.24 910.2 1881.93 921.485 1898.23 929.155C1917.45 938.188 1939.44 942.315 1965.43 941.789C1994.82 941.203 2029.35 934.794 2070.96 922.197C2115.89 908.607 2167.92 888.163 2230.06 859.701C2328.06 807.268 2407.99 752.901 2467.55 698.15C2532.92 638.041 2576.55 574.914 2597.27 510.528L2597.29 510.445C2648.29 369.714 2611.47 223.684 2493.58 99.2551C2438.77 42.0001 2365.05 -6.75793 2268.23 -49.8019C2188.09 -85.4309 2090.67 -118.235 1952.38 -156.165C1707.96 -222.506 1408.41 -260.123 1108.92 -262.084C1100.61 -262.139 1092.28 -262.166 1084 -262.166V-262.167ZM1961.03 943.315C1936.08 943.315 1914.79 939.017 1896.05 930.207C1879.45 922.404 1864.55 910.971 1849.15 894.224C1838.6 882.768 1828.96 870.186 1818.76 856.855C1815.82 853.001 1812.86 849.151 1809.89 845.303C1796.71 828.334 1781.95 810.306 1763.29 793.404C1718.75 753.019 1663.14 729.89 1588.31 720.607C1499.65 709.608 1373.97 707.13 1242.13 705.385C1222.85 705.13 1203.23 704.89 1183.33 704.648C1062.85 703.179 926.296 701.514 792.465 695.128C611.795 686.508 465.181 670.564 344.243 646.389C272.503 632.048 208.316 614.426 153.466 594.011C93.7257 571.776 42.8988 545.435 2.39483 515.718C-78.3694 456.921 -133.286 393.021 -160.829 325.793C-188.05 259.352 -187.113 193.274 -158.048 129.394C-131.736 71.5731 -83.1822 17.9491 -13.7261 -29.9899C59.171 -80.3049 153.487 -123.135 266.596 -157.289C385.373 -193.646 520.166 -221.21 667.231 -239.215C807.399 -256.375 956.019 -264.573 1108.96 -263.567C1408.97 -261.603 1709.05 -223.917 1953.94 -157.452C2092.43 -119.461 2190.02 -86.5949 2270.35 -50.8849C2367.49 -7.70692 2441.44 41.2051 2496.41 98.6451C2614.56 223.327 2651.47 369.646 2600.4 510.649L2600.38 510.697C2579.62 575.263 2535.86 638.561 2470.32 698.831C2410.64 753.693 2330.56 808.164 2232.29 860.731C2169.92 889.296 2117.71 909.8 2072.64 923.442C2030.55 936.187 1995.52 942.671 1965.56 943.271C1964.03 943.3 1962.52 943.315 1961.03 943.315Z" fill="#DD6929"/>
</g>
</g>
</g>
<defs>
<clipPath id="clip0_42_9">
<rect width="2336" height="741" fill="white"/>
</clipPath>
</defs>
</svg>
